<svg width="1024" height="1024" viewBox="0 0 1024 1024" fill="none" xmlns="http://www.w3.org/2000/svg">
<g clip-path="url(#clip0_172_908)">
<path d="M0 703H1024" stroke="#0093D3"/>
<path d="M0 512H1024" stroke="#0093D3"/>
<path d="M0 321H1024" stroke="#0093D3"/>
<path d="M703 1024V0" stroke="#0093D3"/>
<path d="M512 1024V0" stroke="#0093D3"/>
<path d="M321 1024V0" stroke="#0093D3"/>
<path d="M1024 1024L0 0" stroke="#0093D3"/>
<path d="M0 1024L1024 0" stroke="#0093D3"/>
<rect x="67" y="67" width="890" height="890" stroke="#0093D3"/>
<circle cx="512" cy="512" r="191" stroke="#0093D3"/>
<circle cx="512" cy="512" r="269" stroke="#0093D3"/>
<circle cx="512" cy="512" r="445" stroke="#0093D3"/>
<rect width="1024" height="1024" fill="#0093D3"/>
<path fill-rule="evenodd" clip-rule="evenodd" d="M149.971 427.895C140.598 437.267 140.598 452.463 149.971 461.836L492.47 804.336C501.843 813.708 517.039 813.708 526.412 804.336L735.336 595.412C744.708 586.039 744.708 570.843 735.336 561.471L392.836 218.971C383.463 209.598 368.267 209.598 358.895 218.971L149.971 427.895ZM250.789 373.22C245.424 378.585 245.424 387.284 250.789 392.649C256.155 398.015 264.853 398.015 270.219 392.649L323.649 339.219C329.014 333.854 329.014 325.155 323.649 319.79C318.284 314.425 309.585 314.425 304.22 319.79L250.789 373.22Z" fill="white"/>
<mask id="path-15-outside-1_172_908" maskUnits="userSpaceOnUse" x="248.619" y="179.373" width="665.387" height="665.387" fill="black">
<rect fill="white" x="248.619" y="179.373" width="665.387" height="665.387"/>
<path fill-rule="evenodd" clip-rule="evenodd" d="M665.105 218.971C655.733 209.598 640.537 209.598 631.164 218.971L288.664 561.47C279.292 570.843 279.292 586.039 288.664 595.412L497.588 804.336C506.961 813.708 522.157 813.708 531.529 804.336L874.029 461.836C883.402 452.463 883.402 437.267 874.029 427.895L665.105 218.971ZM719.78 319.79C714.415 314.424 705.716 314.424 700.351 319.79C694.986 325.155 694.986 333.854 700.351 339.219L753.781 392.649C759.147 398.014 767.845 398.014 773.211 392.649C778.576 387.284 778.576 378.585 773.211 373.22L719.78 319.79Z"/>
</mask>
<path fill-rule="evenodd" clip-rule="evenodd" d="M665.105 218.971C655.733 209.598 640.537 209.598 631.164 218.971L288.664 561.47C279.292 570.843 279.292 586.039 288.664 595.412L497.588 804.336C506.961 813.708 522.157 813.708 531.529 804.336L874.029 461.836C883.402 452.463 883.402 437.267 874.029 427.895L665.105 218.971ZM719.78 319.79C714.415 314.424 705.716 314.424 700.351 319.79C694.986 325.155 694.986 333.854 700.351 339.219L753.781 392.649C759.147 398.014 767.845 398.014 773.211 392.649C778.576 387.284 778.576 378.585 773.211 373.22L719.78 319.79Z" fill="white"/>
<path d="M497.588 804.336L508.902 793.022L497.588 804.336ZM531.529 804.336L520.216 793.022L531.529 804.336ZM874.029 461.836L885.343 473.149L874.029 461.836ZM642.478 230.284C645.602 227.16 650.667 227.16 653.792 230.284L676.419 207.657C660.798 192.036 635.471 192.036 619.85 207.657L642.478 230.284ZM299.978 572.784L642.478 230.284L619.85 207.657L277.351 550.157L299.978 572.784ZM299.978 584.098C296.854 580.974 296.854 575.908 299.978 572.784L277.351 550.157C261.73 565.778 261.73 591.104 277.351 606.725L299.978 584.098ZM508.902 793.022L299.978 584.098L277.351 606.725L486.275 815.649L508.902 793.022ZM520.216 793.022C517.092 796.146 512.026 796.146 508.902 793.022L486.275 815.649C501.896 831.27 527.222 831.27 542.843 815.649L520.216 793.022ZM862.716 450.522L520.216 793.022L542.843 815.649L885.343 473.149L862.716 450.522ZM862.716 439.208C865.84 442.332 865.84 447.398 862.716 450.522L885.343 473.149C900.964 457.528 900.964 432.202 885.343 416.581L862.716 439.208ZM653.792 230.284L862.716 439.208L885.343 416.581L676.419 207.657L653.792 230.284ZM711.665 331.103C710.782 331.986 709.35 331.986 708.466 331.103L731.094 308.476C719.48 296.862 700.651 296.862 689.037 308.476L711.665 331.103ZM711.665 327.905C712.548 328.788 712.548 330.22 711.665 331.103L689.037 308.476C677.424 320.089 677.424 338.919 689.037 350.532L711.665 327.905ZM765.095 381.335L711.665 327.905L689.037 350.532L742.468 403.963L765.095 381.335ZM761.897 381.335C762.78 380.452 764.212 380.452 765.095 381.335L742.468 403.963C754.081 415.576 772.911 415.576 784.524 403.963L761.897 381.335ZM761.897 384.534C761.014 383.65 761.014 382.219 761.897 381.335L784.524 403.963C796.138 392.349 796.138 373.52 784.524 361.906L761.897 384.534ZM708.466 331.103L761.897 384.534L784.524 361.906L731.094 308.476L708.466 331.103Z" fill="#0093D3" mask="url(#path-15-outside-1_172_908)"/>
</g>
<defs>
<clipPath id="clip0_172_908">
<rect width="1024" height="1024" fill="white"/>
</clipPath>
</defs>
</svg>
